<?xml version="1.0" encoding="UTF-8"?>
<svg width="288px" height="33px" viewBox="0 0 288 33" version="1.1" xmlns="http://www.w3.org/2000/svg" xmlns:xlink="http://www.w3.org/1999/xlink">
    <!-- Generator: Sketch 52.2 (67145) - http://www.bohemiancoding.com/sketch -->
    <title>Group 2</title>
    <desc>Created with Sketch.</desc>
    <g id="Page-1" stroke="none" stroke-width="1" fill="none" fill-rule="evenodd">
        <g id="Desktop-HD-Copy-19" transform="translate(-111.000000, -147.000000)">
            <g id="Page"></g>
            <g id="Group-2" transform="translate(111.000000, 147.000000)" fill="#FFFFFF">
                <path d="M0,16.6289074 L20,16.6289074 L20,17.7686837 L0,17.7686837 L0,16.6289074 Z M10.1534316,20.7420132 L6.42919922,31 L5.21044922,31 L3.81396484,27.3447985 L2.5,27.3447985 L2.5,26.124301 L4.76611328,26.124301 L5.70556641,28.9364783 L5.81347656,29.4649412 L5.953125,28.898731 L9.04736328,19.6022369 L18.0473633,19.6022369 L18.0473633,20.7420132 L10.1534316,20.7420132 Z M16.921875,31 L10.7138672,31 L10.7138672,29.9619479 L13.7226562,26.7093849 C13.9765638,26.4283754 14.1892081,26.1798745 14.3605957,25.9638747 C14.5319833,25.747875 14.6684565,25.5497034 14.7700195,25.369354 C14.8715825,25.1890047 14.9435219,25.0212404 14.9858398,24.8660561 C15.0281578,24.7108718 15.0493164,24.5535927 15.0493164,24.3942142 C15.0493164,24.1845057 15.0165205,23.9905282 14.9509277,23.812276 C14.885335,23.6340237 14.7922369,23.4809388 14.6716309,23.3530166 C14.5510248,23.2250944 14.4050302,23.1254843 14.2336426,23.0541834 C14.062255,22.9828825 13.8707693,22.9472326 13.6591797,22.9472326 C13.1090467,22.9472326 12.7038587,23.0961234 12.4436035,23.3939095 C12.1833483,23.6916956 12.0532227,24.1027182 12.0532227,24.6269895 L10.5297852,24.6269895 C10.5297852,24.2285433 10.6027825,23.8521221 10.7487793,23.4977147 C10.8947761,23.1433073 11.1042467,22.8339919 11.3771973,22.5697591 C11.6501478,22.3055264 11.9812806,22.0968695 12.3706055,21.9437823 C12.7599303,21.790695 13.1979142,21.7141526 13.6845703,21.7141526 C14.1416038,21.7141526 14.5478498,21.7791612 14.9033203,21.9091805 C15.2587908,22.0391998 15.5592436,22.220595 15.8046875,22.4533715 C16.0501314,22.6861479 16.2363275,22.9619105 16.3632812,23.2806675 C16.490235,23.5994245 16.5537109,23.9496324 16.5537109,24.331302 C16.5537109,24.6165056 16.5071619,24.8922682 16.4140625,25.158598 C16.3209631,25.4249278 16.1918954,25.6902052 16.0268555,25.9544379 C15.8618156,26.2186707 15.6650402,26.483948 15.4365234,26.7502778 C15.2080067,27.0166077 14.9604506,27.2902732 14.6938477,27.5712826 L12.5991211,29.7983761 L16.921875,29.7983761 L16.921875,31 Z M11.4401855,13.2844852 L9.91040039,13.2844852 L9.91040039,5.91485632 L7.54907227,6.77813757 L7.54907227,5.44512976 L11.3449707,4.04229773 L11.4401855,4.04229773 L11.4401855,13.2844852 Z" id="Combined-Shape"></path>
                <path d="M112,16.6289074 L132,16.6289074 L132,17.7686837 L112,17.7686837 L112,16.6289074 Z M122.153432,20.7420132 L118.429199,31 L117.210449,31 L115.813965,27.3447985 L114.5,27.3447985 L114.5,26.124301 L116.766113,26.124301 L117.705566,28.9364783 L117.813477,29.4649412 L117.953125,28.898731 L121.047363,19.6022369 L130.047363,19.6022369 L130.047363,20.7420132 L122.153432,20.7420132 Z M128.921875,31 L122.713867,31 L122.713867,29.9619479 L125.722656,26.7093849 C125.976564,26.4283754 126.189208,26.1798745 126.360596,25.9638747 C126.531983,25.747875 126.668457,25.5497034 126.77002,25.369354 C126.871583,25.1890047 126.943522,25.0212404 126.98584,24.8660561 C127.028158,24.7108718 127.049316,24.5535927 127.049316,24.3942142 C127.049316,24.1845057 127.016521,23.9905282 126.950928,23.812276 C126.885335,23.6340237 126.792237,23.4809388 126.671631,23.3530166 C126.551025,23.2250944 126.40503,23.1254843 126.233643,23.0541834 C126.062255,22.9828825 125.870769,22.9472326 125.65918,22.9472326 C125.109047,22.9472326 124.703859,23.0961234 124.443604,23.3939095 C124.183348,23.6916956 124.053223,24.1027182 124.053223,24.6269895 L122.529785,24.6269895 C122.529785,24.2285433 122.602782,23.8521221 122.748779,23.4977147 C122.894776,23.1433073 123.104247,22.8339919 123.377197,22.5697591 C123.650148,22.3055264 123.981281,22.0968695 124.370605,21.9437823 C124.75993,21.790695 125.197914,21.7141526 125.68457,21.7141526 C126.141604,21.7141526 126.54785,21.7791612 126.90332,21.9091805 C127.258791,22.0391998 127.559244,22.220595 127.804688,22.4533715 C128.050131,22.6861479 128.236327,22.9619105 128.363281,23.2806675 C128.490235,23.5994245 128.553711,23.9496324 128.553711,24.331302 C128.553711,24.6165056 128.507162,24.8922682 128.414062,25.158598 C128.320963,25.4249278 128.191895,25.6902052 128.026855,25.9544379 C127.861816,26.2186707 127.66504,26.483948 127.436523,26.7502778 C127.208007,27.0166077 126.960451,27.2902732 126.693848,27.5712826 L124.599121,29.7983761 L128.921875,29.7983761 L128.921875,31 Z M123.440186,13.2844852 L121.9104,13.2844852 L121.9104,5.91485632 L119.549072,6.77813757 L119.549072,5.44512976 L123.344971,4.04229773 L123.440186,4.04229773 L123.440186,13.2844852 Z" id="Combined-Shape-Copy"></path>
                <g id="Group" transform="translate(32.000000, 0.000000)">
                    <path d="M25.5366211,19.9667969 C25.5366211,21.1601622 25.3990899,22.2117468 25.1240234,23.121582 C24.848957,24.0314173 24.4532903,24.7931284 23.9370117,25.4067383 C23.4207331,26.0203481 22.7902055,26.4837224 22.0454102,26.796875 C21.3006148,27.1100276 20.4627325,27.2666016 19.5317383,27.2666016 C18.6092076,27.2666016 17.7755571,27.1100276 17.0307617,26.796875 C16.2859663,26.4837224 15.6533229,26.0203481 15.1328125,25.4067383 C14.6123021,24.7931284 14.2102879,24.0314173 13.9267578,23.121582 C13.6432277,22.2117468 13.5014648,21.1601622 13.5014648,19.9667969 L13.5014648,15.5488281 C13.5014648,14.3554628 13.6411119,13.3038782 13.9204102,12.394043 C14.1997084,11.4842077 14.5996068,10.7224966 15.1201172,10.1088867 C15.6406276,9.49527688 16.2711552,9.03190261 17.0117188,8.71875 C17.7522823,8.40559739 18.583817,8.24902344 19.5063477,8.24902344 C20.4373419,8.24902344 21.2752241,8.40559739 22.0200195,8.71875 C22.7648149,9.03190261 23.3974583,9.49527688 23.9179688,10.1088867 C24.4384792,10.7224966 24.8383775,11.4842077 25.1176758,12.394043 C25.3969741,13.3038782 25.5366211,14.3554628 25.5366211,15.5488281 L25.5366211,19.9667969 Z M16.5483398,18.8115234 L22.4643555,14.40625 C22.3966468,13.145176 22.1194686,12.2120798 21.6328125,11.6069336 C21.1461564,11.0017873 20.4373419,10.6992188 19.5063477,10.6992188 C18.5161083,10.6992188 17.7755558,11.0504522 17.284668,11.7529297 C16.7937801,12.4554072 16.5483398,13.5344979 16.5483398,14.9902344 L16.5483398,18.8115234 Z M22.4897461,16.7929688 L16.5737305,21.1982422 C16.726075,23.6188272 17.7120677,24.8291016 19.5317383,24.8291016 C21.5037533,24.8291016 22.4897461,23.3860821 22.4897461,20.5 L22.4897461,16.7929688 Z" id="0"></path>
                    <rect id="Rectangle" x="0" y="4" width="3" height="29"></rect>
                    <polygon id="Rectangle-Copy" points="33 4 36 4 41.3139077 18.5 36 33 33 33 38.3139077 18.5"></polygon>
                </g>
                <g id="Group-Copy" transform="translate(143.000000, 0.000000)">
                    <polygon id="1" points="21.8803711 27 18.8208008 27 18.8208008 12.2607422 14.0981445 13.9873047 14.0981445 11.3212891 21.6899414 8.515625 21.8803711 8.515625"></polygon>
                    <rect id="Rectangle" x="0" y="4" width="3" height="29"></rect>
                    <polygon id="Rectangle-Copy" points="33 4 36 4 41.3139077 18.5 36 33 33 33 38.3139077 18.5"></polygon>
                </g>
                <g id="Group-Copy-2" transform="translate(246.000000, 0.000000)">
                    <polygon id="1" points="21.8803711 27 18.8208008 27 18.8208008 12.2607422 14.0981445 13.9873047 14.0981445 11.3212891 21.6899414 8.515625 21.8803711 8.515625"></polygon>
                    <rect id="Rectangle" x="0" y="4" width="3" height="29"></rect>
                    <polygon id="Rectangle-Copy" points="33 4 36 4 41.3139077 18.5 36 33 33 33 38.3139077 18.5"></polygon>
                </g>
                <polygon id="+" points="95.902832 17.84375 100.752441 17.84375 100.752441 20.7001953 95.902832 20.7001953 95.902832 26.1464844 92.9448242 26.1464844 92.9448242 20.7001953 88.0825195 20.7001953 88.0825195 17.84375 92.9448242 17.84375 92.9448242 12.6894531 95.902832 12.6894531"></polygon>
                <polygon id="→" points="227.423828 18.1601562 220.553711 25.0302734 220.553711 19.4199219 203.751953 19.4199219 203.751953 16.8857422 220.553711 16.8857422 220.568359 11.2900391"></polygon>
                <path d="M197.427246,0.716796875 L197.456543,1.2734375 C197.56071,1.06835835 197.700683,0.908040942 197.876465,0.792480469 C198.052247,0.676919995 198.263833,0.619140625 198.51123,0.619140625 C198.735841,0.619140625 198.9222,0.663899292 199.070312,0.753417969 C199.218425,0.842936646 199.329915,0.98209541 199.404785,1.17089844 C199.508952,1.00162676 199.642415,0.867350757 199.805176,0.768066406 C199.967937,0.668782056 200.164875,0.619140625 200.395996,0.619140625 C200.568523,0.619140625 200.727213,0.647623413 200.87207,0.704589844 C201.016928,0.761556274 201.140624,0.851887402 201.243164,0.975585938 C201.345704,1.09928447 201.425455,1.2571605 201.482422,1.44921875 C201.539388,1.641277 201.567871,1.87239448 201.567871,2.14257812 L201.567871,6 L200.483887,6 L200.483887,2.1328125 C200.483887,1.9212229 200.439128,1.77555378 200.349609,1.69580078 C200.260091,1.61604778 200.145346,1.57617188 200.005371,1.57617188 C199.871907,1.57617188 199.766114,1.60790984 199.687988,1.67138672 C199.609863,1.7348636 199.552897,1.81868438 199.51709,1.92285156 L199.51709,6 L198.45752,6 L198.45752,2.1328125 C198.45752,1.92773335 198.416016,1.78369182 198.333008,1.70068359 C198.25,1.61767537 198.136882,1.57617188 197.993652,1.57617188 C197.856933,1.57617188 197.749512,1.60546846 197.671387,1.6640625 C197.593261,1.72265654 197.533041,1.80240835 197.490723,1.90332031 L197.490723,6 L196.406738,6 L196.406738,0.716796875 L197.427246,0.716796875 Z M205.215332,6.09765625 C204.824705,6.09765625 204.468263,6.03255273 204.145996,5.90234375 C203.823729,5.77213477 203.547853,5.5931001 203.318359,5.36523438 C203.088866,5.13736865 202.910645,4.86800286 202.783691,4.55712891 C202.656738,4.24625496 202.593262,3.91015806 202.593262,3.54882812 L202.593262,3.34863281 C202.593262,2.92870884 202.660807,2.55110845 202.795898,2.21582031 C202.93099,1.88053218 203.111653,1.59407671 203.337891,1.35644531 C203.564129,1.11881392 203.827798,0.936524072 204.128906,0.809570312 C204.430015,0.682616553 204.74658,0.619140625 205.078613,0.619140625 C205.46273,0.619140625 205.801268,0.683430347 206.094238,0.812011719 C206.387208,0.940593091 206.63216,1.12125535 206.829102,1.35400391 C207.026043,1.58675247 207.174967,1.86262861 207.275879,2.18164062 C207.376791,2.50065264 207.427246,2.85058403 207.427246,3.23144531 L207.427246,3.72460938 L203.765137,3.72460938 C203.784668,3.92968853 203.835123,4.12011631 203.916504,4.29589844 C203.997885,4.47168057 204.104492,4.62386003 204.236328,4.75244141 C204.368165,4.88102278 204.522786,4.98193323 204.700195,5.05517578 C204.877605,5.12841833 205.072102,5.16503906 205.283691,5.16503906 C205.579917,5.16503906 205.852538,5.1064459 206.101562,4.98925781 C206.350587,4.87206973 206.553222,4.71093853 206.709473,4.50585938 L207.344238,5.1015625 C207.259602,5.22851626 207.150554,5.35139915 207.01709,5.47021484 C206.883626,5.58903054 206.727377,5.69482375 206.54834,5.78759766 C206.369302,5.88037156 206.168295,5.9552406 205.945312,6.01220703 C205.72233,6.06917346 205.479005,6.09765625 205.215332,6.09765625 Z M205.07373,1.56152344 C204.910969,1.56152344 204.759604,1.59082002 204.619629,1.64941406 C204.479654,1.70800811 204.35433,1.79345647 204.243652,1.90576172 C204.132975,2.01806697 204.039388,2.15478435 203.962891,2.31591797 C203.886393,2.47705159 203.831869,2.66015522 203.799316,2.86523438 L206.274902,2.86523438 L206.274902,2.77734375 C206.265137,2.62109297 206.235026,2.47054109 206.18457,2.32568359 C206.134114,2.1808261 206.060059,2.05143286 205.962402,1.9375 C205.864746,1.82356714 205.741863,1.73242222 205.59375,1.6640625 C205.445637,1.59570278 205.272299,1.56152344 205.07373,1.56152344 Z M212.124512,6 C212.091959,5.93489551 212.065104,5.85839888 212.043945,5.77050781 C212.022786,5.68261675 212.004069,5.58821665 211.987793,5.48730469 C211.906412,5.57194053 211.814454,5.65087854 211.711914,5.72412109 C211.609374,5.79736365 211.495443,5.86165337 211.370117,5.91699219 C211.244791,5.97233101 211.109701,6.01627588 210.964844,6.04882812 C210.819986,6.08138037 210.664552,6.09765625 210.498535,6.09765625 C210.218586,6.09765625 209.965496,6.05778035 209.739258,5.97802734 C209.51302,5.89827434 209.319337,5.78759836 209.158203,5.64599609 C208.99707,5.50439382 208.872559,5.33756606 208.784668,5.14550781 C208.696777,4.95344956 208.652832,4.74511831 208.652832,4.52050781 C208.652832,3.95409873 208.863605,3.52116035 209.285156,3.22167969 C209.706708,2.92219902 210.311357,2.77246094 211.099121,2.77246094 L211.953613,2.77246094 L211.953613,2.42578125 C211.953613,2.14583193 211.859213,1.92366619 211.67041,1.75927734 C211.481607,1.5948885 211.214683,1.51269531 210.869629,1.51269531 C210.713378,1.51269531 210.576661,1.53141257 210.459473,1.56884766 C210.342285,1.60628274 210.244629,1.65755176 210.166504,1.72265625 C210.088379,1.78776074 210.029785,1.86425737 209.990723,1.95214844 C209.95166,2.0400395 209.932129,2.1344396 209.932129,2.23535156 L208.765137,2.23535156 C208.765137,2.03027241 208.813151,1.8308929 208.90918,1.63720703 C209.005209,1.44352117 209.145995,1.27099685 209.331543,1.11962891 C209.517091,0.968260962 209.744139,0.847005664 210.012695,0.755859375 C210.281251,0.664713086 210.588052,0.619140625 210.933105,0.619140625 C211.245607,0.619140625 211.535318,0.65738894 211.802246,0.733886719 C212.069175,0.810384497 212.300292,0.924315649 212.495605,1.07568359 C212.690919,1.22705154 212.843912,1.41585173 212.95459,1.64208984 C213.065267,1.86832795 213.120605,2.13281099 213.120605,2.43554688 L213.120605,4.7890625 C213.120605,5.02018345 213.137695,5.23095608 213.171875,5.42138672 C213.206055,5.61181736 213.255696,5.77701753 213.320801,5.91699219 L213.320801,6 L212.124512,6 Z M210.718262,5.15527344 C210.868002,5.15527344 211.008788,5.13655618 211.140625,5.09912109 C211.272462,5.06168601 211.391276,5.01285837 211.49707,4.95263672 C211.602865,4.89241506 211.69401,4.82324258 211.770508,4.74511719 C211.847006,4.6669918 211.90804,4.58723999 211.953613,4.50585938 L211.953613,3.51464844 L211.211426,3.51464844 C210.736163,3.51464844 210.385418,3.59114507 210.15918,3.74414062 C209.932942,3.89713618 209.819824,4.11523296 209.819824,4.3984375 C209.819824,4.50585991 209.837728,4.60595657 209.873535,4.69873047 C209.909343,4.79150437 209.963867,4.87125618 210.037109,4.93798828 C210.110352,5.00472039 210.203124,5.05761699 210.31543,5.09667969 C210.427735,5.13574238 210.562011,5.15527344 210.718262,5.15527344 Z M218.19873,4.56933594 C218.19873,4.48144487 218.180827,4.40087927 218.14502,4.32763672 C218.109212,4.25439417 218.044922,4.18766306 217.952148,4.12744141 C217.859375,4.06721975 217.732423,4.01106797 217.571289,3.95898438 C217.410155,3.90690078 217.204266,3.85644556 216.953613,3.80761719 C216.641112,3.7425127 216.358725,3.66438848 216.106445,3.57324219 C215.854165,3.4820959 215.637696,3.37304751 215.457031,3.24609375 C215.276366,3.11913999 215.137208,2.97184329 215.039551,2.80419922 C214.941894,2.63655515 214.893066,2.4420584 214.893066,2.22070312 C214.893066,2.0058583 214.943522,1.80159602 215.044434,1.60791016 C215.145346,1.41422429 215.289387,1.24414136 215.476562,1.09765625 C215.663738,0.951171143 215.8916,0.834798608 216.160156,0.748535156 C216.428712,0.662271704 216.729002,0.619140625 217.061035,0.619140625 C217.412599,0.619140625 217.727538,0.663085498 218.005859,0.750976562 C218.284181,0.838867627 218.519368,0.958495337 218.711426,1.10986328 C218.903484,1.26123123 219.050781,1.4394521 219.15332,1.64453125 C219.25586,1.8496104 219.307129,2.06933477 219.307129,2.30371094 L218.140137,2.30371094 C218.140137,2.19954375 218.11735,2.09944709 218.071777,2.00341797 C218.026204,1.90738884 217.957846,1.82194048 217.866699,1.74707031 C217.775553,1.67220015 217.662436,1.61279319 217.527344,1.56884766 C217.392252,1.52490212 217.236817,1.50292969 217.061035,1.50292969 C216.885253,1.50292969 216.733074,1.52164695 216.604492,1.55908203 C216.475911,1.59651711 216.369304,1.64534475 216.284668,1.70556641 C216.200032,1.76578806 216.13737,1.83658813 216.09668,1.91796875 C216.055989,1.99934937 216.035645,2.08398394 216.035645,2.171875 C216.035645,2.25976606 216.051107,2.33951787 216.082031,2.41113281 C216.112956,2.48274775 216.170735,2.54785127 216.255371,2.60644531 C216.340007,2.66503936 216.457193,2.71793596 216.606934,2.76513672 C216.756674,2.81233748 216.950357,2.85709614 217.187988,2.89941406 C217.520021,2.95800811 217.818684,3.03124956 218.083984,3.11914062 C218.349285,3.20703169 218.57552,3.31445249 218.762695,3.44140625 C218.949871,3.56836001 219.093912,3.71891189 219.194824,3.89306641 C219.295736,4.06722092 219.346191,4.2714832 219.346191,4.50585938 C219.346191,4.74023555 219.292481,4.95507715 219.185059,5.15039062 C219.077636,5.3457041 218.924643,5.51415945 218.726074,5.65576172 C218.527506,5.79736399 218.289064,5.90722617 218.010742,5.98535156 C217.73242,6.06347695 217.420737,6.10253906 217.075684,6.10253906 C216.691567,6.10253906 216.353029,6.05127004 216.060059,5.94873047 C215.767088,5.84619089 215.521323,5.71191489 215.322754,5.54589844 C215.124185,5.37988198 214.973633,5.19108179 214.871094,4.97949219 C214.768554,4.76790259 214.717285,4.55306099 214.717285,4.33496094 L215.850098,4.33496094 C215.859863,4.49772217 215.902181,4.63606714 215.977051,4.75 C216.051921,4.86393286 216.147949,4.95589158 216.265137,5.02587891 C216.382325,5.09586624 216.512532,5.14632146 216.655762,5.17724609 C216.798992,5.20817073 216.943847,5.22363281 217.090332,5.22363281 C217.451662,5.22363281 217.726724,5.16259827 217.915527,5.04052734 C218.10433,4.91845642 218.19873,4.76139419 218.19873,4.56933594 Z M224.145996,5.27734375 C223.966959,5.53776172 223.749676,5.74039641 223.494141,5.88525391 C223.238605,6.0301114 222.952964,6.10253906 222.637207,6.10253906 C222.363768,6.10253906 222.113933,6.06022178 221.887695,5.97558594 C221.661457,5.8909501 221.467774,5.7566741 221.306641,5.57275391 C221.145507,5.38883372 221.020183,5.15446106 220.930664,4.86962891 C220.841145,4.58479675 220.796387,4.2421895 220.796387,3.84179688 L220.796387,0.716796875 L221.963379,0.716796875 L221.963379,3.8515625 C221.963379,4.10547002 221.982096,4.31542886 222.019531,4.48144531 C222.056966,4.64746177 222.114746,4.77929639 222.192871,4.87695312 C222.270996,4.97460986 222.368652,5.04378235 222.48584,5.08447266 C222.603028,5.12516296 222.743,5.14550781 222.905762,5.14550781 C223.218263,5.14550781 223.470539,5.08447327 223.662598,4.96240234 C223.854656,4.84033142 223.999511,4.67513125 224.097168,4.46679688 L224.097168,0.716796875 L225.269043,0.716796875 L225.269043,6 L224.214355,6 L224.145996,5.27734375 Z M230.38623,0.619140625 C230.480632,0.619140625 230.575032,0.622395801 230.669434,0.62890625 C230.763835,0.635416699 230.854166,0.645182227 230.94043,0.658203125 C231.026693,0.671224023 231.105631,0.685058521 231.177246,0.699707031 C231.248861,0.714355542 231.309082,0.731445215 231.35791,0.750976562 L231.191895,1.8984375 C230.83382,1.81705688 230.480633,1.77636719 230.132324,1.77636719 C229.741697,1.77636719 229.426759,1.85774658 229.1875,2.02050781 C228.948241,2.18326904 228.771648,2.40950376 228.657715,2.69921875 L228.657715,6 L227.490723,6 L227.490723,0.716796875 L228.584473,0.716796875 L228.638184,1.54199219 C228.853028,1.25553242 229.107746,1.0301115 229.402344,0.865722656 C229.696942,0.701333813 230.024901,0.619140625 230.38623,0.619140625 Z M235.220215,6.09765625 C234.829588,6.09765625 234.473146,6.03255273 234.150879,5.90234375 C233.828612,5.77213477 233.552736,5.5931001 233.323242,5.36523438 C233.093749,5.13736865 232.915528,4.86800286 232.788574,4.55712891 C232.66162,4.24625496 232.598145,3.91015806 232.598145,3.54882812 L232.598145,3.34863281 C232.598145,2.92870884 232.665689,2.55110845 232.800781,2.21582031 C232.935873,1.88053218 233.116535,1.59407671 233.342773,1.35644531 C233.569012,1.11881392 233.832681,0.936524072 234.133789,0.809570312 C234.434897,0.682616553 234.751463,0.619140625 235.083496,0.619140625 C235.467613,0.619140625 235.806151,0.683430347 236.099121,0.812011719 C236.392091,0.940593091 236.637043,1.12125535 236.833984,1.35400391 C237.030925,1.58675247 237.17985,1.86262861 237.280762,2.18164062 C237.381674,2.50065264 237.432129,2.85058403 237.432129,3.23144531 L237.432129,3.72460938 L233.77002,3.72460938 C233.789551,3.92968853 233.840006,4.12011631 233.921387,4.29589844 C234.002767,4.47168057 234.109374,4.62386003 234.241211,4.75244141 C234.373048,4.88102278 234.527668,4.98193323 234.705078,5.05517578 C234.882488,5.12841833 235.076985,5.16503906 235.288574,5.16503906 C235.5848,5.16503906 235.857421,5.1064459 236.106445,4.98925781 C236.35547,4.87206973 236.558105,4.71093853 236.714355,4.50585938 L237.349121,5.1015625 C237.264485,5.22851626 237.155437,5.35139915 237.021973,5.47021484 C236.888508,5.58903054 236.73226,5.69482375 236.553223,5.78759766 C236.374185,5.88037156 236.173178,5.9552406 235.950195,6.01220703 C235.727212,6.06917346 235.483888,6.09765625 235.220215,6.09765625 Z M235.078613,1.56152344 C234.915852,1.56152344 234.764486,1.59082002 234.624512,1.64941406 C234.484537,1.70800811 234.359213,1.79345647 234.248535,1.90576172 C234.137858,2.01806697 234.044271,2.15478435 233.967773,2.31591797 C233.891276,2.47705159 233.836751,2.66015522 233.804199,2.86523438 L236.279785,2.86523438 L236.279785,2.77734375 C236.270019,2.62109297 236.239909,2.47054109 236.189453,2.32568359 C236.138997,2.1808261 236.064942,2.05143286 235.967285,1.9375 C235.869628,1.82356714 235.746746,1.73242222 235.598633,1.6640625 C235.45052,1.59570278 235.277182,1.56152344 235.078613,1.56152344 Z" id="measure"></path>
            </g>
        </g>
    </g>
</svg>