<?xml version="1.0" encoding="UTF-8"?>
<svg width="288px" height="29px" viewBox="0 0 288 29" version="1.1" xmlns="http://www.w3.org/2000/svg" xmlns:xlink="http://www.w3.org/1999/xlink">
    <!-- Generator: Sketch 52.2 (67145) - http://www.bohemiancoding.com/sketch -->
    <title>Group 2</title>
    <desc>Created with Sketch.</desc>
    <g id="Page-1" stroke="none" stroke-width="1" fill="none" fill-rule="evenodd">
        <g id="Desktop-HD-Copy-19" transform="translate(-111.000000, -151.000000)">
            <g id="Page"></g>
            <g id="Group-2" transform="translate(111.000000, 147.000000)" fill="#FFFFFF">
                <path d="M0,16.6289074 L20,16.6289074 L20,17.7686837 L0,17.7686837 L0,16.6289074 Z M10.1534316,20.7420132 L6.42919922,31 L5.21044922,31 L3.81396484,27.3447985 L2.5,27.3447985 L2.5,26.124301 L4.76611328,26.124301 L5.70556641,28.9364783 L5.81347656,29.4649412 L5.953125,28.898731 L9.04736328,19.6022369 L18.0473633,19.6022369 L18.0473633,20.7420132 L10.1534316,20.7420132 Z M16.921875,31 L10.7138672,31 L10.7138672,29.9619479 L13.7226562,26.7093849 C13.9765638,26.4283754 14.1892081,26.1798745 14.3605957,25.9638747 C14.5319833,25.747875 14.6684565,25.5497034 14.7700195,25.369354 C14.8715825,25.1890047 14.9435219,25.0212404 14.9858398,24.8660561 C15.0281578,24.7108718 15.0493164,24.5535927 15.0493164,24.3942142 C15.0493164,24.1845057 15.0165205,23.9905282 14.9509277,23.812276 C14.885335,23.6340237 14.7922369,23.4809388 14.6716309,23.3530166 C14.5510248,23.2250944 14.4050302,23.1254843 14.2336426,23.0541834 C14.062255,22.9828825 13.8707693,22.9472326 13.6591797,22.9472326 C13.1090467,22.9472326 12.7038587,23.0961234 12.4436035,23.3939095 C12.1833483,23.6916956 12.0532227,24.1027182 12.0532227,24.6269895 L10.5297852,24.6269895 C10.5297852,24.2285433 10.6027825,23.8521221 10.7487793,23.4977147 C10.8947761,23.1433073 11.1042467,22.8339919 11.3771973,22.5697591 C11.6501478,22.3055264 11.9812806,22.0968695 12.3706055,21.9437823 C12.7599303,21.790695 13.1979142,21.7141526 13.6845703,21.7141526 C14.1416038,21.7141526 14.5478498,21.7791612 14.9033203,21.9091805 C15.2587908,22.0391998 15.5592436,22.220595 15.8046875,22.4533715 C16.0501314,22.6861479 16.2363275,22.9619105 16.3632812,23.2806675 C16.490235,23.5994245 16.5537109,23.9496324 16.5537109,24.331302 C16.5537109,24.6165056 16.5071619,24.8922682 16.4140625,25.158598 C16.3209631,25.4249278 16.1918954,25.6902052 16.0268555,25.9544379 C15.8618156,26.2186707 15.6650402,26.483948 15.4365234,26.7502778 C15.2080067,27.0166077 14.9604506,27.2902732 14.6938477,27.5712826 L12.5991211,29.7983761 L16.921875,29.7983761 L16.921875,31 Z M11.4401855,13.2844852 L9.91040039,13.2844852 L9.91040039,5.91485632 L7.54907227,6.77813757 L7.54907227,5.44512976 L11.3449707,4.04229773 L11.4401855,4.04229773 L11.4401855,13.2844852 Z" id="Combined-Shape"></path>
                <path d="M112,16.6289074 L132,16.6289074 L132,17.7686837 L112,17.7686837 L112,16.6289074 Z M122.153432,20.7420132 L118.429199,31 L117.210449,31 L115.813965,27.3447985 L114.5,27.3447985 L114.5,26.124301 L116.766113,26.124301 L117.705566,28.9364783 L117.813477,29.4649412 L117.953125,28.898731 L121.047363,19.6022369 L130.047363,19.6022369 L130.047363,20.7420132 L122.153432,20.7420132 Z M128.921875,31 L122.713867,31 L122.713867,29.9619479 L125.722656,26.7093849 C125.976564,26.4283754 126.189208,26.1798745 126.360596,25.9638747 C126.531983,25.747875 126.668457,25.5497034 126.77002,25.369354 C126.871583,25.1890047 126.943522,25.0212404 126.98584,24.8660561 C127.028158,24.7108718 127.049316,24.5535927 127.049316,24.3942142 C127.049316,24.1845057 127.016521,23.9905282 126.950928,23.812276 C126.885335,23.6340237 126.792237,23.4809388 126.671631,23.3530166 C126.551025,23.2250944 126.40503,23.1254843 126.233643,23.0541834 C126.062255,22.9828825 125.870769,22.9472326 125.65918,22.9472326 C125.109047,22.9472326 124.703859,23.0961234 124.443604,23.3939095 C124.183348,23.6916956 124.053223,24.1027182 124.053223,24.6269895 L122.529785,24.6269895 C122.529785,24.2285433 122.602782,23.8521221 122.748779,23.4977147 C122.894776,23.1433073 123.104247,22.8339919 123.377197,22.5697591 C123.650148,22.3055264 123.981281,22.0968695 124.370605,21.9437823 C124.75993,21.790695 125.197914,21.7141526 125.68457,21.7141526 C126.141604,21.7141526 126.54785,21.7791612 126.90332,21.9091805 C127.258791,22.0391998 127.559244,22.220595 127.804688,22.4533715 C128.050131,22.6861479 128.236327,22.9619105 128.363281,23.2806675 C128.490235,23.5994245 128.553711,23.9496324 128.553711,24.331302 C128.553711,24.6165056 128.507162,24.8922682 128.414062,25.158598 C128.320963,25.4249278 128.191895,25.6902052 128.026855,25.9544379 C127.861816,26.2186707 127.66504,26.483948 127.436523,26.7502778 C127.208007,27.0166077 126.960451,27.2902732 126.693848,27.5712826 L124.599121,29.7983761 L128.921875,29.7983761 L128.921875,31 Z M123.440186,13.2844852 L121.9104,13.2844852 L121.9104,5.91485632 L119.549072,6.77813757 L119.549072,5.44512976 L123.344971,4.04229773 L123.440186,4.04229773 L123.440186,13.2844852 Z" id="Combined-Shape-Copy"></path>
                <g id="Group" transform="translate(32.000000, 0.000000)">
                    <path d="M25.5366211,19.9667969 C25.5366211,21.1601622 25.3990899,22.2117468 25.1240234,23.121582 C24.848957,24.0314173 24.4532903,24.7931284 23.9370117,25.4067383 C23.4207331,26.0203481 22.7902055,26.4837224 22.0454102,26.796875 C21.3006148,27.1100276 20.4627325,27.2666016 19.5317383,27.2666016 C18.6092076,27.2666016 17.7755571,27.1100276 17.0307617,26.796875 C16.2859663,26.4837224 15.6533229,26.0203481 15.1328125,25.4067383 C14.6123021,24.7931284 14.2102879,24.0314173 13.9267578,23.121582 C13.6432277,22.2117468 13.5014648,21.1601622 13.5014648,19.9667969 L13.5014648,15.5488281 C13.5014648,14.3554628 13.6411119,13.3038782 13.9204102,12.394043 C14.1997084,11.4842077 14.5996068,10.7224966 15.1201172,10.1088867 C15.6406276,9.49527688 16.2711552,9.03190261 17.0117188,8.71875 C17.7522823,8.40559739 18.583817,8.24902344 19.5063477,8.24902344 C20.4373419,8.24902344 21.2752241,8.40559739 22.0200195,8.71875 C22.7648149,9.03190261 23.3974583,9.49527688 23.9179688,10.1088867 C24.4384792,10.7224966 24.8383775,11.4842077 25.1176758,12.394043 C25.3969741,13.3038782 25.5366211,14.3554628 25.5366211,15.5488281 L25.5366211,19.9667969 Z M16.5483398,18.8115234 L22.4643555,14.40625 C22.3966468,13.145176 22.1194686,12.2120798 21.6328125,11.6069336 C21.1461564,11.0017873 20.4373419,10.6992188 19.5063477,10.6992188 C18.5161083,10.6992188 17.7755558,11.0504522 17.284668,11.7529297 C16.7937801,12.4554072 16.5483398,13.5344979 16.5483398,14.9902344 L16.5483398,18.8115234 Z M22.4897461,16.7929688 L16.5737305,21.1982422 C16.726075,23.6188272 17.7120677,24.8291016 19.5317383,24.8291016 C21.5037533,24.8291016 22.4897461,23.3860821 22.4897461,20.5 L22.4897461,16.7929688 Z" id="0"></path>
                    <rect id="Rectangle" x="0" y="4" width="3" height="29"></rect>
                    <polygon id="Rectangle-Copy" points="33 4 36 4 41.3139077 18.5 36 33 33 33 38.3139077 18.5"></polygon>
                </g>
                <g id="Group-Copy" transform="translate(143.000000, 0.000000)">
                    <polygon id="1" points="21.8803711 27 18.8208008 27 18.8208008 12.2607422 14.0981445 13.9873047 14.0981445 11.3212891 21.6899414 8.515625 21.8803711 8.515625"></polygon>
                    <rect id="Rectangle" x="0" y="4" width="3" height="29"></rect>
                    <polygon id="Rectangle-Copy" points="33 4 36 4 41.3139077 18.5 36 33 33 33 38.3139077 18.5"></polygon>
                </g>
                <g id="Group-Copy-2" transform="translate(246.000000, 0.000000)">
                    <polygon id="1" points="21.8803711 27 18.8208008 27 18.8208008 12.2607422 14.0981445 13.9873047 14.0981445 11.3212891 21.6899414 8.515625 21.8803711 8.515625"></polygon>
                    <rect id="Rectangle" x="0" y="4" width="3" height="29"></rect>
                    <polygon id="Rectangle-Copy" points="33 4 36 4 41.3139077 18.5 36 33 33 33 38.3139077 18.5"></polygon>
                </g>
                <polygon id="+" points="95.902832 17.84375 100.752441 17.84375 100.752441 20.7001953 95.902832 20.7001953 95.902832 26.1464844 92.9448242 26.1464844 92.9448242 20.7001953 88.0825195 20.7001953 88.0825195 17.84375 92.9448242 17.84375 92.9448242 12.6894531 95.902832 12.6894531"></polygon>
                <polygon id="→" points="227.423828 18.1601562 220.553711 25.0302734 220.553711 19.4199219 203.751953 19.4199219 203.751953 16.8857422 220.553711 16.8857422 220.568359 11.2900391"></polygon>
            </g>
        </g>
    </g>
</svg>