<?xml version="1.0" encoding="UTF-8"?>
<svg width="64px" height="64px" viewBox="0 0 64 64" version="1.1" xmlns="http://www.w3.org/2000/svg" xmlns:xlink="http://www.w3.org/1999/xlink">
    <!-- Generator: Sketch 52.2 (67145) - http://www.bohemiancoding.com/sketch -->
    <title>Group</title>
    <desc>Created with Sketch.</desc>
    <g id="Page-1" stroke="none" stroke-width="1" fill="none" fill-rule="evenodd">
        <g id="Desktop-HD-Copy-12" transform="translate(-39.000000, -95.000000)">
            <g id="Page"></g>
            <g id="Group" transform="translate(39.000000, 95.000000)" fill="#658DFF">
                <path d="M64,39 L57,39 L57,7 L7,7 L7,57 L55,57 L55,64 L0,64 L0,0 L64,0 L64,39 Z" id="Combined-Shape"></path>
                <path d="M43.2734375,33.3398438 C43.2734375,35.097665 42.9739613,36.7317633 42.375,38.2421875 C41.7760387,39.7526117 40.929693,41.054682 39.8359375,42.1484375 L44.5625,46.7382812 L41.3984375,49.5703125 L36.1640625,44.5703125 C35.460934,44.8567723 34.7187539,45.0683587 33.9375,45.2050781 C33.1562461,45.3417976 32.3489625,45.4101562 31.515625,45.4101562 C28.1041496,45.4101562 25.333995,44.2675896 23.2050781,41.9824219 C21.0761612,39.6972542 20.0117188,36.8164236 20.0117188,33.3398438 L20.0117188,28.2226562 C20.0117188,24.7590973 21.0761612,21.8815219 23.2050781,19.5898438 C25.333995,17.2981656 28.0976393,16.1523438 31.4960938,16.1523438 C34.9726736,16.1523438 37.8046766,17.2981656 39.9921875,19.5898438 C42.1796984,21.8815219 43.2734375,24.7590973 43.2734375,28.2226562 L43.2734375,33.3398438 Z M38.546875,28.1835938 C38.546875,25.8137902 37.9121157,23.8671951 36.6425781,22.34375 C35.3730405,20.8203049 33.6575629,20.0585938 31.4960938,20.0585938 C29.41275,20.0585938 27.7656311,20.8203049 26.5546875,22.34375 C25.3437439,23.8671951 24.7382812,25.8137902 24.7382812,28.1835938 L24.7382812,33.3398438 C24.7382812,35.7356891 25.3437439,37.6985601 26.5546875,39.2285156 C27.7656311,40.7584712 29.4192604,41.5234375 31.515625,41.5234375 C33.690115,41.5234375 35.4055927,40.7617264 36.6621094,39.2382812 C37.9186261,37.7148361 38.546875,35.74871 38.546875,33.3398438 L38.546875,28.1835938 Z" id="Q"></path>
            </g>
        </g>
    </g>
</svg>